<svg width="215" height="55" viewBox="0 0 215 55" fill="none" xmlns="http://www.w3.org/2000/svg">
<path d="M74.8065 31.5905V7.37382H85.3067C87.1513 7.37382 88.7003 7.62214 89.9537 8.11877C91.215 8.6154 92.1649 9.31699 92.8035 10.2235C93.4499 11.1301 93.7731 12.1982 93.7731 13.428C93.7731 14.3188 93.576 15.1307 93.1818 15.8638C92.7956 16.597 92.2516 17.2118 91.5501 17.7085C90.8485 18.1972 90.0286 18.5362 89.0906 18.7254V18.9619C90.1311 19.0013 91.0771 19.2654 91.9284 19.7541C92.7798 20.235 93.4577 20.9011 93.9623 21.7525C94.4668 22.5959 94.719 23.5892 94.719 24.7322C94.719 26.0566 94.3722 27.2351 93.6785 28.2678C92.9926 29.3005 92.0152 30.1124 90.746 30.7036C89.4768 31.2949 87.9633 31.5905 86.2054 31.5905H74.8065ZM81.381 26.3404H84.4553C85.559 26.3404 86.3867 26.1354 86.9385 25.7255C87.4903 25.3077 87.7662 24.6928 87.7662 23.8809C87.7662 23.3133 87.6361 22.8324 87.376 22.4383C87.1159 22.0441 86.7454 21.7446 86.2645 21.5396C85.7915 21.3347 85.22 21.2322 84.5499 21.2322H81.381V26.3404ZM81.381 17.1645H84.0769C84.6524 17.1645 85.1609 17.0739 85.6023 16.8926C86.0438 16.7113 86.3867 16.4511 86.631 16.1122C86.8833 15.7653 87.0094 15.3436 87.0094 14.8469C87.0094 14.098 86.7414 13.5265 86.2054 13.1324C85.6693 12.7303 84.9914 12.5293 84.1715 12.5293H81.381V17.1645ZM97.0485 31.5905V7.37382H107.501C109.299 7.37382 110.871 7.70097 112.219 8.35526C113.567 9.00955 114.616 9.95157 115.365 11.1813C116.114 12.4111 116.488 13.8852 116.488 15.6037C116.488 17.338 116.102 18.8003 115.329 19.9906C114.565 21.1809 113.489 22.0796 112.101 22.6866C110.722 23.2936 109.109 23.5971 107.265 23.5971H101.022V18.4889H105.941C106.713 18.4889 107.371 18.3943 107.915 18.2051C108.467 18.008 108.889 17.6966 109.18 17.271C109.48 16.8453 109.63 16.2895 109.63 15.6037C109.63 14.91 109.48 14.3464 109.18 13.9128C108.889 13.4713 108.467 13.1481 107.915 12.9432C107.371 12.7303 106.713 12.6239 105.941 12.6239H103.623V31.5905H97.0485ZM111.238 20.4754L117.292 31.5905H110.15L104.238 20.4754H111.238ZM142.75 19.4821C142.75 22.1781 142.226 24.4524 141.178 26.3049C140.129 28.1495 138.714 29.5488 136.933 30.5026C135.151 31.4486 133.165 31.9216 130.973 31.9216C128.766 31.9216 126.771 31.4446 124.99 30.4908C123.216 29.5291 121.805 28.1259 120.757 26.2813C119.716 24.4287 119.196 22.1624 119.196 19.4821C119.196 16.7862 119.716 14.5158 120.757 12.6712C121.805 10.8187 123.216 9.41947 124.99 8.4735C126.771 7.51966 128.766 7.04273 130.973 7.04273C133.165 7.04273 135.151 7.51966 136.933 8.4735C138.714 9.41947 140.129 10.8187 141.178 12.6712C142.226 14.5158 142.75 16.7862 142.75 19.4821ZM135.987 19.4821C135.987 18.0317 135.794 16.8098 135.407 15.8165C135.029 14.8154 134.465 14.0586 133.716 13.5462C132.975 13.0259 132.061 12.7658 130.973 12.7658C129.885 12.7658 128.967 13.0259 128.218 13.5462C127.477 14.0586 126.913 14.8154 126.527 15.8165C126.149 16.8098 125.959 18.0317 125.959 19.4821C125.959 20.9326 126.149 22.1584 126.527 23.1596C126.913 24.1528 127.477 24.9096 128.218 25.4299C128.967 25.9423 129.885 26.1985 130.973 26.1985C132.061 26.1985 132.975 25.9423 133.716 25.4299C134.465 24.9096 135.029 24.1528 135.407 23.1596C135.794 22.1584 135.987 20.9326 135.987 19.4821ZM166.745 7.37382V31.5905H161.259L152.508 18.8673H152.367V31.5905H145.792V7.37382H151.373L159.982 20.0497H160.171V7.37382H166.745ZM169.855 31.5905V7.37382H176.43V17.1645H176.761L184.045 7.37382H191.707L183.524 18.1578L191.896 31.5905H184.045L178.605 22.5092L176.43 25.3471V31.5905H169.855ZM206.387 14.9415C206.324 14.1532 206.028 13.5383 205.5 13.0969C204.98 12.6554 204.188 12.4347 203.123 12.4347C202.445 12.4347 201.89 12.5175 201.456 12.683C201.03 12.8407 200.715 13.0575 200.51 13.3334C200.305 13.6093 200.199 13.9246 200.191 14.2794C200.175 14.571 200.226 14.8351 200.345 15.0716C200.471 15.3002 200.668 15.5091 200.936 15.6983C201.204 15.8796 201.547 16.0451 201.965 16.1949C202.382 16.3447 202.879 16.4787 203.454 16.597L205.441 17.0226C206.781 17.3064 207.928 17.6809 208.882 18.146C209.836 18.6111 210.616 19.1589 211.223 19.7896C211.83 20.4123 212.276 21.1139 212.559 21.8944C212.851 22.6748 213.001 23.5261 213.009 24.4485C213.001 26.0408 212.603 27.3888 211.814 28.4924C211.026 29.5961 209.899 30.4356 208.433 31.0111C206.974 31.5865 205.22 31.8743 203.171 31.8743C201.066 31.8743 199.229 31.5629 197.66 30.9401C196.1 30.3174 194.886 29.3596 194.019 28.0668C193.159 26.7661 192.726 25.1027 192.718 23.0768H198.961C199.001 23.8178 199.186 24.4406 199.517 24.9451C199.848 25.4496 200.313 25.8319 200.912 26.0921C201.519 26.3522 202.241 26.4823 203.076 26.4823C203.778 26.4823 204.365 26.3956 204.838 26.2221C205.311 26.0487 205.67 25.8083 205.914 25.5008C206.158 25.1934 206.284 24.8426 206.292 24.4485C206.284 24.0779 206.162 23.7547 205.926 23.4788C205.697 23.195 205.319 22.9428 204.791 22.7221C204.263 22.4935 203.549 22.2806 202.65 22.0835L200.238 21.5633C198.094 21.0982 196.403 20.3217 195.165 19.2338C193.936 18.1381 193.325 16.6443 193.333 14.7523C193.325 13.2151 193.735 11.8711 194.562 10.7202C195.398 9.56136 196.553 8.65875 198.027 8.01235C199.509 7.36594 201.208 7.04273 203.123 7.04273C205.078 7.04273 206.769 7.36988 208.196 8.02417C209.623 8.67846 210.723 9.60078 211.495 10.7911C212.276 11.9736 212.67 13.357 212.678 14.9415H206.387ZM80.1573 52.5905H75.6135V36.2075H80.5092C82.0451 36.2075 83.3597 36.5328 84.453 37.1834C85.5463 37.834 86.3835 38.7673 86.9648 39.9832C87.5515 41.1938 87.8421 42.6471 87.8368 44.343C87.8315 46.0762 87.5275 47.5588 86.9248 48.7907C86.3222 50.0173 85.4503 50.9586 84.309 51.6145C83.1677 52.2652 81.7838 52.5905 80.1573 52.5905ZM76.6135 51.6625H80.1173C81.5785 51.6625 82.8104 51.3719 83.813 50.7906C84.8156 50.2039 85.5729 49.364 86.0849 48.2707C86.6022 47.1775 86.8582 45.8682 86.8529 44.343C86.8529 42.8391 86.6049 41.5511 86.1089 40.4792C85.6129 39.4019 84.8903 38.5753 83.941 37.9994C82.9971 37.4234 81.8398 37.1354 80.4692 37.1354H76.6135V51.6625ZM97.1449 52.5905V36.2075H106.264V37.1354H98.1449V43.927H105.776V44.8549H98.1449V51.6625H106.456V52.5905H97.1449ZM115.817 52.5905V36.2075H116.816V51.6625H124.816V52.5905H115.817ZM134.894 36.2075V52.5905H133.894V36.2075H134.894ZM144.41 36.2075L149.786 51.3025H149.898L155.274 36.2075H156.33L150.418 52.5905H149.266L143.354 36.2075H144.41ZM164.792 52.5905V36.2075H173.911V37.1354H165.792V43.927H173.423V44.8549H165.792V51.6625H174.103V52.5905H164.792ZM183.463 52.5905V36.2075H188.511C189.546 36.2075 190.436 36.4101 191.183 36.8154C191.929 37.2207 192.503 37.7834 192.903 38.5033C193.303 39.2179 193.503 40.0499 193.503 40.9992C193.503 41.9378 193.303 42.7644 192.903 43.479C192.503 44.1883 191.929 44.7429 191.183 45.1429C190.442 45.5429 189.554 45.7429 188.519 45.7429H183.999V44.8069H188.495C189.338 44.8069 190.058 44.6496 190.655 44.335C191.252 44.0203 191.711 43.5803 192.031 43.015C192.351 42.4444 192.511 41.7725 192.511 40.9992C192.511 40.2206 192.351 39.5433 192.031 38.9673C191.711 38.386 191.25 37.9354 190.647 37.6154C190.05 37.2954 189.33 37.1354 188.487 37.1354H184.463V52.5905H183.463ZM190.191 45.1669L194.223 52.5905H193.071L189.063 45.1669H190.191ZM200.537 36.2075H201.721L206.881 44.111H206.993L212.152 36.2075H213.336L207.441 45.1589V52.5905H206.433V45.1589L200.537 36.2075Z" fill="#464643"/>
<path d="M23.2034 10.547V2.1094C23.2034 1.54995 23.4257 1.01342 23.8213 0.61783C24.2169 0.22224 24.7534 0 25.3128 0C25.8723 0 26.4088 0.22224 26.8044 0.61783C27.2 1.01342 27.4223 1.54995 27.4223 2.1094V10.547C27.4223 11.1065 27.2 11.643 26.8044 12.0386C26.4088 12.4342 25.8723 12.6564 25.3128 12.6564C24.7534 12.6564 24.2169 12.4342 23.8213 12.0386C23.4257 11.643 23.2034 11.1065 23.2034 10.547ZM33.7505 12.6564C34.3099 12.6564 34.8464 12.4342 35.242 12.0386C35.6376 11.643 35.8599 11.1065 35.8599 10.547V2.1094C35.8599 1.54995 35.6376 1.01342 35.242 0.61783C34.8464 0.22224 34.3099 0 33.7505 0C33.191 0 32.6545 0.22224 32.2589 0.61783C31.8633 1.01342 31.6411 1.54995 31.6411 2.1094V10.547C31.6411 11.1065 31.8633 11.643 32.2589 12.0386C32.6545 12.4342 33.191 12.6564 33.7505 12.6564ZM42.1881 12.6564C42.7475 12.6564 43.2841 12.4342 43.6797 12.0386C44.0752 11.643 44.2975 11.1065 44.2975 10.547V2.1094C44.2975 1.54995 44.0752 1.01342 43.6797 0.61783C43.2841 0.22224 42.7475 0 42.1881 0C41.6286 0 41.0921 0.22224 40.6965 0.61783C40.3009 1.01342 40.0787 1.54995 40.0787 2.1094V10.547C40.0787 11.1065 40.3009 11.643 40.6965 12.0386C41.0921 12.4342 41.6286 12.6564 42.1881 12.6564ZM67.079 21.9378C66.7434 21.4902 66.2437 21.1944 65.6898 21.1152C65.136 21.0361 64.5734 21.1802 64.1259 21.5159L59.0633 25.3128V18.9846C59.0633 18.4252 58.8411 17.8886 58.4455 17.4931C58.0499 17.0975 57.5133 16.8752 56.9539 16.8752H10.547C9.98758 16.8752 9.45104 17.0975 9.05545 17.4931C8.65986 17.8886 8.43762 18.4252 8.43762 18.9846V25.3128L3.37505 21.5159C2.9275 21.1802 2.36492 21.0361 1.8111 21.1152C1.25727 21.1944 0.757558 21.4902 0.421889 21.9378C0.0862202 22.3854 -0.0579088 22.9479 0.0212092 23.5018C0.100327 24.0556 0.396211 24.5553 0.84377 24.891L8.43762 30.5863V46.4069C8.43762 48.6447 9.32658 50.7908 10.9089 52.3732C12.4913 53.9555 14.6374 54.8445 16.8752 54.8445H50.6257C52.8635 54.8445 55.0096 53.9555 56.592 52.3732C58.1743 50.7908 59.0633 48.6447 59.0633 46.4069V30.5863L66.6572 24.891C66.8788 24.7248 67.0655 24.5165 67.2066 24.2782C67.3477 24.0398 67.4405 23.776 67.4797 23.5018C67.5189 23.2275 67.5037 22.9483 67.4349 22.6799C67.3662 22.4116 67.2452 22.1594 67.079 21.9378Z" fill="#8047F8"/>
</svg>
